<?xml version="1.0" encoding="utf-8"?>
<!-- Generator: Adobe Illustrator 16.0.0, SVG Export Plug-In . SVG Version: 6.00 Build 0)  -->
<!DOCTYPE svg PUBLIC "-//W3C//DTD SVG 1.1//EN" "http://www.w3.org/Graphics/SVG/1.1/DTD/svg11.dtd" [
	<!ENTITY ns_extend "http://ns.adobe.com/Extensibility/1.0/">
	<!ENTITY ns_ai "http://ns.adobe.com/AdobeIllustrator/10.0/">
	<!ENTITY ns_graphs "http://ns.adobe.com/Graphs/1.0/">
	<!ENTITY ns_vars "http://ns.adobe.com/Variables/1.0/">
	<!ENTITY ns_imrep "http://ns.adobe.com/ImageReplacement/1.0/">
	<!ENTITY ns_sfw "http://ns.adobe.com/SaveForWeb/1.0/">
	<!ENTITY ns_custom "http://ns.adobe.com/GenericCustomNamespace/1.0/">
	<!ENTITY ns_adobe_xpath "http://ns.adobe.com/XPath/1.0/">
]>
<svg version="1.1" id="Layer_1" xmlns:x="&ns_extend;" xmlns:i="&ns_ai;" xmlns:graph="&ns_graphs;"
	 xmlns="http://www.w3.org/2000/svg" xmlns:xlink="http://www.w3.org/1999/xlink" x="0px" y="0px" width="50px" height="28px"
	 viewBox="0 0 50 28" enable-background="new 0 0 50 28" xml:space="preserve">
<metadata>
	<sfw  xmlns="&ns_sfw;">
		<slices></slices>
		<sliceSourceBounds  height="61.002" width="64" y="1486.499" x="1460.5" bottomLeftOrigin="true"></sliceSourceBounds>
	</sfw>
</metadata>
<image display="none" overflow="visible" enable-background="new    " width="60" height="34" xlink:href="P:\work\UI\IF\img\arrow_up.png"  transform="matrix(1 0 0 1 -14 -33.001)">
</image>
<path fill="#6393C8" d="M48.574,22.581L27.813,1.438c-0.25-0.256-0.521-0.468-0.799-0.658c-0.043-0.054-0.072-0.116-0.123-0.167
	c-0.471-0.479-1.146-0.66-1.882-0.599c-0.743-0.066-1.427,0.115-1.902,0.599c-0.05,0.052-0.081,0.115-0.125,0.172
	c-0.276,0.189-0.546,0.4-0.797,0.655L1.425,22.581c-1.517,1.545-1.882,3.701-0.811,4.793c1.071,1.092,3.189,0.72,4.707-0.825
	L24.999,6.508l19.68,20.041c1.518,1.545,3.636,1.917,4.706,0.825C50.456,26.282,50.091,24.126,48.574,22.581z"/>
</svg>
