<?xml version="1.0" encoding="utf-8"?>
<!-- Generator: Adobe Illustrator 16.0.0, SVG Export Plug-In . SVG Version: 6.00 Build 0)  -->
<!DOCTYPE svg PUBLIC "-//W3C//DTD SVG 1.1//EN" "http://www.w3.org/Graphics/SVG/1.1/DTD/svg11.dtd">
<svg version="1.1" id="Layer_1" xmlns="http://www.w3.org/2000/svg" xmlns:xlink="http://www.w3.org/1999/xlink" x="0px" y="0px"
	 width="21.676px" height="21.676px" viewBox="1.239 1.239 21.676 21.676" enable-background="new 1.239 1.239 21.676 21.676"
	 xml:space="preserve">
<g>
	<path fill="#FFFFFF" d="M1.239,1.858v9.6h10.219V1.239h-9.6C1.503,1.239,1.239,1.505,1.239,1.858z M3.964,5.882
		c0.021-0.001,0.039-0.001,0.061,0h1.856V4.027c-0.007-0.321,0.234-0.598,0.554-0.63C6.461,3.394,6.49,3.393,6.519,3.394
		c0.34,0.007,0.61,0.287,0.604,0.633v1.854H8.98c0.006,0,0.012,0,0.018,0c0.339,0.005,0.614,0.286,0.61,0.629
		C9.604,6.85,9.322,7.125,8.98,7.121H7.116v1.857c0,0.006,0,0.012,0,0.018c-0.005,0.339-0.289,0.615-0.628,0.61
		C6.15,9.6,5.873,9.32,5.878,8.978V7.121H4.023c-0.34,0.013-0.63-0.25-0.648-0.591C3.361,6.191,3.622,5.901,3.964,5.882z"/>
	<path fill="#FFFFFF" d="M12.696,22.915h9.6c0.354,0,0.619-0.264,0.619-0.618v-9.601H12.696V22.915z M15.114,15.793
		c0.02-0.001,0.039-0.001,0.057,0h4.955c0.006,0,0.014,0,0.02,0c0.34,0.005,0.615,0.286,0.607,0.628
		c-0.004,0.34-0.283,0.616-0.627,0.61h-4.955c-0.34,0.014-0.631-0.249-0.646-0.59C14.509,16.102,14.772,15.811,15.114,15.793z
		 M15.114,18.271c0.02-0.001,0.039-0.001,0.057,0h4.955c0.006,0,0.014,0,0.02,0c0.34,0.005,0.615,0.284,0.607,0.628
		c-0.004,0.339-0.283,0.612-0.627,0.608h-4.955c-0.34,0.016-0.631-0.25-0.646-0.591C14.509,18.577,14.772,18.288,15.114,18.271z"/>
	<path fill="#FFFFFF" d="M22.296,1.239h-9.6v10.219h10.219v-9.6C22.915,1.505,22.651,1.239,22.296,1.239z M20.126,7.123h-4.955
		c-0.34,0.013-0.631-0.25-0.646-0.591c-0.016-0.339,0.248-0.629,0.59-0.648c0.02-0.001,0.039-0.001,0.057,0h4.955
		c0.006,0,0.014,0,0.02,0c0.34,0.005,0.615,0.286,0.607,0.629C20.749,6.853,20.469,7.127,20.126,7.123z"/>
	<path fill="#FFFFFF" d="M1.239,22.297c0,0.353,0.265,0.618,0.619,0.618h9.6V12.696H1.239V22.297z M4.208,16.231
		c-0.106-0.105-0.174-0.243-0.188-0.391c-0.034-0.341,0.216-0.644,0.556-0.677c0.188-0.017,0.372,0.05,0.503,0.184l1.422,1.427
		l1.422-1.425c0.096-0.1,0.222-0.163,0.358-0.185c0.201-0.032,0.402,0.042,0.541,0.188c0.236,0.25,0.222,0.642-0.028,0.876
		l-1.422,1.423l1.422,1.412c0.008,0.006,0.015,0.012,0.021,0.018c0.237,0.245,0.23,0.638-0.015,0.876
		c-0.243,0.238-0.637,0.233-0.876-0.013l-1.422-1.423l-1.423,1.423c-0.005,0.006-0.011,0.012-0.017,0.018
		C4.816,20.2,4.42,20.19,4.188,19.942C3.95,19.694,3.96,19.3,4.208,19.066l1.423-1.412L4.208,16.231z"/>
</g>
</svg>
