<?xml version="1.0" encoding="utf-8"?>
<!-- Generator: Adobe Illustrator 16.0.0, SVG Export Plug-In . SVG Version: 6.00 Build 0)  -->
<!DOCTYPE svg PUBLIC "-//W3C//DTD SVG 1.1//EN" "http://www.w3.org/Graphics/SVG/1.1/DTD/svg11.dtd">
<svg version="1.1" id="Capa_1" xmlns="http://www.w3.org/2000/svg" xmlns:xlink="http://www.w3.org/1999/xlink" x="0px" y="0px"
	 width="20.68px" height="31.358px" viewBox="5.34 0 20.68 31.358" enable-background="new 5.34 0 20.68 31.358"
	 xml:space="preserve">
<g>
	<path fill="#FFFFFF" d="M15.255,0c5.425,0,10.765,2.498,10.765,8.474c0,5.51-6.314,7.629-7.67,9.62
		c-1.019,1.48-0.679,3.562-3.476,3.562c-1.821,0-2.712-1.482-2.712-2.838c0-5.046,7.414-6.188,7.414-10.343
		c0-2.287-1.521-3.644-4.066-3.644c-5.424,0-3.306,5.592-7.413,5.592c-1.483,0-2.757-0.89-2.757-2.584
		C5.339,3.683,10.084,0,15.255,0z M15.044,24.406c1.904,0,3.476,1.566,3.476,3.476c0,1.91-1.568,3.477-3.476,3.477
		c-1.906,0-3.476-1.564-3.476-3.477C11.568,25.973,13.137,24.406,15.044,24.406z"/>
</g>
</svg>
